<?xml version="1.0" standalone="no"?>
<!DOCTYPE svg PUBLIC "-//W3C//DTD SVG 20010904//EN"
 "http://www.w3.org/TR/2001/REC-SVG-20010904/DTD/svg10.dtd">
<svg version="1.0" xmlns="http://www.w3.org/2000/svg"
 width="867.000000pt" height="185.000000pt" viewBox="0 0 867.000000 185.000000"
 preserveAspectRatio="xMidYMid meet">
<metadata>
Created by potrace 1.16, written by Peter Selinger 2001-2019
</metadata>
<g transform="translate(0.000000,185.000000) scale(0.100000,-0.100000)"
fill="#000000" stroke="none">
<path d="M805 1832 c-74 -36 -719 -412 -744 -435 -13 -12 -32 -40 -42 -62 -17
-37 -19 -74 -19 -494 0 -444 1 -456 21 -499 27 -55 48 -70 305 -217 l209 -120
70 0 c67 0 74 2 181 62 61 35 114 63 118 63 5 0 49 -24 99 -53 135 -79 190
-92 268 -65 70 24 444 249 480 288 59 64 60 77 57 565 -3 484 -1 467 -67 531
-16 16 -193 123 -393 239 l-363 209 -70 3 c-53 3 -80 -1 -110 -15z m356 -527
c112 -64 215 -127 228 -139 47 -42 51 -68 51 -340 0 -140 -3 -257 -7 -259 -5
-3 -109 49 -232 115 -201 108 -230 121 -285 125 -68 6 -72 4 -438 -191 l-107
-57 -6 33 c-4 18 -5 139 -3 269 4 305 -15 274 259 431 112 64 215 122 229 127
56 24 99 8 311 -114z m10 -681 c120 -64 219 -119 219 -123 0 -8 -45 -36 -286
-175 l-201 -116 -233 135 c-129 74 -239 140 -246 147 -11 11 26 34 191 123
236 127 258 136 303 130 19 -2 132 -57 253 -121z"/>
<path d="M2820 960 l0 -450 95 0 95 0 0 421 0 421 -29 29 c-27 26 -36 29 -95
29 l-66 0 0 -450z"/>
<path d="M5150 961 l0 -451 95 0 95 0 0 208 c0 180 3 212 19 248 26 57 64 84
117 84 58 0 90 -16 117 -59 21 -34 22 -49 25 -258 l3 -223 90 0 89 0 0 258 c0
288 -6 327 -63 384 -40 39 -82 57 -157 65 -75 7 -139 -10 -196 -53 l-42 -33
-4 119 c-4 148 -7 153 -113 158 l-75 4 0 -451z"/>
<path d="M6590 960 l0 -450 95 0 95 0 0 405 c0 443 -3 465 -55 485 -15 6 -51
10 -81 10 l-54 0 0 -450z"/>
<path d="M7330 1268 c0 -135 -1 -141 -16 -119 -25 35 -110 71 -170 71 -135 0
-227 -65 -264 -189 -30 -99 -26 -290 9 -367 28 -63 70 -106 136 -136 44 -20
66 -23 170 -23 105 0 126 3 168 24 26 13 63 42 82 64 60 70 65 103 65 450 l0
309 -29 29 c-26 26 -36 29 -90 29 l-61 0 0 -142z m-61 -244 c79 -66 79 -272 0
-338 -40 -34 -123 -37 -161 -6 -38 29 -60 94 -60 176 1 131 47 194 144 194 35
0 54 -6 77 -26z"/>
<path d="M2323 1210 c-88 -18 -150 -66 -194 -150 -24 -45 -24 -48 -27 -433
l-3 -387 68 0 c37 0 73 4 79 8 27 18 34 56 34 193 l0 143 28 -26 c44 -42 90
-60 152 -61 91 -1 148 20 201 73 62 62 80 117 86 261 8 174 -28 276 -117 335
-70 47 -199 65 -307 44z m184 -181 c39 -36 53 -80 53 -166 0 -55 -6 -90 -20
-120 -47 -105 -174 -110 -231 -10 -20 36 -24 55 -24 132 1 103 16 143 68 176
43 27 117 21 154 -12z"/>
<path d="M3259 1207 c-66 -19 -108 -53 -135 -111 -13 -28 -24 -57 -24 -63 0
-20 186 -18 193 1 9 22 73 39 123 31 48 -7 74 -26 74 -55 0 -31 -38 -48 -145
-65 -190 -30 -265 -95 -265 -230 0 -89 42 -159 117 -196 40 -19 63 -23 143
-22 152 1 245 43 298 132 26 45 27 50 30 240 2 106 1 204 -2 216 -10 38 -57
87 -105 108 -57 25 -234 33 -302 14z m238 -407 c-8 -67 -25 -100 -66 -127 -90
-61 -201 0 -157 85 8 16 23 33 33 37 19 8 172 52 187 54 5 0 6 -22 3 -49z"/>
<path d="M3955 1206 c-126 -40 -182 -112 -206 -265 -25 -164 27 -330 124 -396
109 -75 298 -70 403 10 30 23 94 133 94 162 0 10 -20 13 -84 13 -81 0 -85 -1
-126 -35 -36 -30 -49 -35 -92 -35 -43 0 -54 4 -83 33 -56 56 -71 172 -37 271
22 63 58 91 117 91 36 0 50 -6 77 -32 34 -33 35 -33 131 -33 74 0 97 3 97 13
0 8 -14 41 -30 74 -34 68 -80 106 -156 129 -57 17 -174 17 -229 0z"/>
<path d="M4641 1201 c-69 -24 -99 -47 -138 -104 -42 -63 -56 -137 -51 -272 7
-169 55 -253 173 -307 69 -31 219 -32 285 -2 66 31 106 68 134 129 40 83 39
85 -52 85 -74 0 -82 -2 -128 -35 -85 -61 -175 -43 -210 41 -28 67 -37 64 207
64 l221 0 -4 103 c-3 78 -10 114 -27 154 -31 69 -95 127 -162 147 -71 21 -181
20 -248 -3z m174 -145 c34 -15 51 -37 65 -87 l9 -29 -125 0 -125 0 7 23 c15
49 37 79 67 92 41 18 60 18 102 1z"/>
<path d="M6095 1211 c-91 -22 -161 -86 -192 -175 -14 -39 -18 -82 -18 -186 0
-119 3 -141 23 -184 35 -77 67 -112 129 -143 52 -25 68 -28 158 -28 83 0 109
4 152 24 67 30 114 82 143 157 32 81 34 260 5 349 -27 83 -99 157 -174 179
-56 16 -172 20 -226 7z m151 -166 c26 -11 40 -26 55 -60 40 -90 20 -258 -34
-304 -28 -22 -103 -26 -133 -6 -42 27 -67 98 -67 187 0 94 27 158 76 182 40
20 59 20 103 1z"/>
<path d="M7795 1210 c-88 -22 -151 -74 -186 -153 -22 -47 -24 -66 -24 -192 0
-163 14 -212 77 -281 59 -64 123 -88 238 -88 102 0 145 13 206 59 30 23 94
133 94 162 0 10 -20 13 -83 13 -78 0 -85 -2 -120 -31 -45 -37 -110 -49 -157
-29 -32 13 -70 73 -70 110 0 20 5 20 220 20 l220 0 0 78 c0 81 -16 155 -43
208 -24 47 -94 102 -151 119 -52 16 -170 18 -221 5z m149 -155 c34 -16 54 -42
67 -87 l8 -28 -125 0 c-79 0 -124 4 -124 10 0 30 44 93 73 105 42 18 62 18
101 0z"/>
<path d="M8515 1196 c-65 -16 -104 -37 -144 -78 -72 -72 -91 -160 -91 -425 l0
-183 95 0 95 0 0 203 c0 172 3 207 18 237 21 44 72 70 135 70 l47 0 0 95 0 95
-52 -1 c-29 0 -75 -6 -103 -13z"/>
</g>
</svg>
